<svg id="Layer_2" data-name="Layer 2" xmlns="http://www.w3.org/2000/svg" xmlns:xlink="http://www.w3.org/1999/xlink" viewBox="0 0 500 500"><defs><style>.cls-1{fill:url(#linear-gradient);}.cls-2{fill:url(#linear-gradient-2);}.cls-3{fill:url(#linear-gradient-3);}.cls-4{fill:url(#linear-gradient-4);}.cls-5{fill:url(#linear-gradient-5);}.cls-6{fill:url(#linear-gradient-6);}.cls-7{fill:url(#linear-gradient-7);}.cls-8{fill:url(#linear-gradient-8);}.cls-9{fill:url(#radial-gradient);}.cls-10{fill:url(#radial-gradient-2);}.cls-11{fill:url(#radial-gradient-3);}.cls-12{fill:url(#radial-gradient-4);}</style><linearGradient id="linear-gradient" x1="91.02" y1="295.18" x2="223.97" y2="161.71" gradientUnits="userSpaceOnUse"><stop offset="0" stop-color="#944815"/><stop offset="0.1" stop-color="#aa622e"/><stop offset="0.22" stop-color="#c07b46"/><stop offset="0.33" stop-color="#cd8b55"/><stop offset="0.42" stop-color="#d2905a"/><stop offset="0.45" stop-color="#d59663"/><stop offset="0.53" stop-color="#dca87e"/><stop offset="0.61" stop-color="#e2b693"/><stop offset="0.71" stop-color="#e6c0a2"/><stop offset="0.82" stop-color="#e8c5aa"/><stop offset="1" stop-color="#e9c7ad"/></linearGradient><linearGradient id="linear-gradient-2" x1="231.84" y1="295.2" x2="364.78" y2="161.73" gradientTransform="matrix(-1, 0, 0, 1, 641.83, 0)" xlink:href="#linear-gradient"/><linearGradient id="linear-gradient-3" x1="347.42" y1="347.84" x2="391.35" y2="347.84" gradientTransform="matrix(-1, 0, 0, 1, 641.83, 0)" gradientUnits="userSpaceOnUse"><stop offset="0" stop-color="#eaceb6"/><stop offset="1" stop-color="#eaddd0"/></linearGradient><linearGradient id="linear-gradient-4" x1="206.61" y1="347.82" x2="250.54" y2="347.82" gradientTransform="matrix(1, 0, 0, 1, 0, 0)" xlink:href="#linear-gradient-3"/><linearGradient id="linear-gradient-5" x1="251.47" y1="343.61" x2="251.54" y2="332.7" gradientUnits="userSpaceOnUse"><stop offset="0" stop-color="#33333d"/><stop offset="0.03" stop-color="#31313a"/><stop offset="0.28" stop-color="#24242b"/><stop offset="0.56" stop-color="#1d1d23"/><stop offset="1" stop-color="#1b1b20"/></linearGradient><linearGradient id="linear-gradient-6" x1="251.33" y1="342.44" x2="251.33" y2="173.19" gradientTransform="translate(-313.26 -122.96) scale(2.25 1.37)" gradientUnits="userSpaceOnUse"><stop offset="0" stop-color="#d2905a"/><stop offset="0.19" stop-color="#d3945f"/><stop offset="0.44" stop-color="#d89e6f"/><stop offset="0.7" stop-color="#dfae88"/><stop offset="0.98" stop-color="#e8c6ab"/><stop offset="1" stop-color="#e9c7ad"/></linearGradient><linearGradient id="linear-gradient-7" x1="236.02" y1="311.46" x2="235.41" y2="281.09" gradientUnits="userSpaceOnUse"><stop offset="0" stop-color="#1b1b20"/><stop offset="0.34" stop-color="#1e1e23"/><stop offset="0.62" stop-color="#26262e"/><stop offset="0.86" stop-color="#33333d"/></linearGradient><linearGradient id="linear-gradient-8" x1="376.84" y1="311.47" x2="376.22" y2="281.11" gradientTransform="matrix(-1, 0, 0, 1, 641.83, 0)" xlink:href="#linear-gradient-7"/><radialGradient id="radial-gradient" cx="196.91" cy="222.35" fx="207.31483907810895" fy="230.144217564736" r="13" gradientUnits="userSpaceOnUse"><stop offset="0" stop-color="#110f10"/><stop offset="0.48" stop-color="#131112"/><stop offset="0.65" stop-color="#191719"/><stop offset="0.77" stop-color="#242324"/><stop offset="0.87" stop-color="#343335"/><stop offset="0.91" stop-color="#3e3e40"/></radialGradient><radialGradient id="radial-gradient-2" cx="337.72" cy="222.37" fx="348.12819708977577" fy="230.16176536859928" r="13" gradientTransform="matrix(-1, 0, 0, 1, 641.83, 0)" xlink:href="#radial-gradient"/><radialGradient id="radial-gradient-3" cx="210.05" cy="238.3" r="49.57" gradientUnits="userSpaceOnUse"><stop offset="0" stop-color="#e5ac7e"/><stop offset="0.3" stop-color="#db9e6d"/><stop offset="1" stop-color="#c47e47"/></radialGradient><radialGradient id="radial-gradient-4" cx="350.86" cy="238.31" r="49.57" gradientTransform="matrix(-1, 0, 0, 1, 641.83, 0)" xlink:href="#radial-gradient-3"/></defs><path class="cls-1" d="M138.07,223.77c-1.12,9.36-1.36,22.9,4.18,37.29,3.71,9.63,6.18,9.71,10.31,20.28,2.87,7.35,10.25,26.24,2.78,45-2.36,5.93-5.59,14-12.14,15.55-8.54,2-13.45-9.43-34.48-24.29C94.09,307.23,91,308.91,81,299.59c-7.42-6.91-15.52-14.46-18-26.23-2.86-13.78,3.62-25.66,9.23-35.94,8.73-16,13.81-14.5,24.77-31.57,12.2-19,7.47-24.59,18.46-36.43,8.55-9.22,14-9.88,35-22.34,20.26-12,23.7-18.75,45.17-29.63,11.44-5.79,29.23-12.2,55.09-12.38"/><path class="cls-2" d="M363,223.79a77.51,77.51,0,0,1-4.18,37.29c-3.71,9.63-6.18,9.71-10.31,20.28-2.87,7.35-10.25,26.24-2.78,45,2.36,5.93,5.59,14,12.14,15.54,8.54,2,13.45-9.42,34.48-24.28,14.63-10.33,17.68-8.65,27.69-18,7.42-6.91,15.52-14.46,18-26.23,2.86-13.78-3.62-25.66-9.23-35.94-8.73-16-13.81-14.51-24.77-31.57-12.2-19-7.47-24.59-18.46-36.43-8.55-9.22-14-9.88-35-22.34-20.26-12-23.7-18.76-45.16-29.63-11.45-5.79-29.24-12.2-55.1-12.38"/><path class="cls-3" d="M250.48,332.35l43.93,18.4a56.2,56.2,0,0,1-43.86,11.95"/><path class="cls-4" d="M250.54,332.33l-43.93,18.4a56.2,56.2,0,0,0,43.86,11.95"/><ellipse class="cls-5" cx="251.51" cy="337.95" rx="13.91" ry="4.51"/><path class="cls-6" d="M361,216C328.52,105.69,250.51,105.09,250.51,105.09c-73.66-.56-107.78,87-111.61,107.33-2.55,13.51-1.12,29.44-1.12,29.44s1.45,16.24,7.85,27.13c1.07,1.83.79,1,2.91,4.15,3.12,4.69,5.36,8.93,9.67,18.24,3.67,7.91,5.5,11.87,5.9,13.4,2.18,8.33.34,12.37.78,17.84,1.17,14.35,17.42,29.58,32.71,30.88,12.14,1,25.3-6.59,28.7-8.56s9.71-6.11,19.12-7.48a41.32,41.32,0,0,1,6.74-.45c10.59.18,18.26,4.84,23.61,7.56,9.48,4.82,21.29,10.82,32.38,8.78,13.91-2.56,27.48-17.91,28.09-31.48.22-4.8-1.2-8.95.77-16.45,1.18-4.48,3.1-8.38,5.44-13.11.71-1.45,1.29-2.55,6-10.95,5.75-10.22,5.87-10.33,6.93-12.35a156.69,156.69,0,0,0,7.08-15.56C367.8,239.22,362.81,222.2,361,216Z"/><path class="cls-7" d="M250.79,282.38a68.8,68.8,0,0,0-7.12.2c-6.29.5-10.8.85-15.29,3.59a15.49,15.49,0,0,0-6.71,6.9c-.29.65-3.24,7.61,1.09,13.12,4.89,6.22,13.48,3.77,14.12,3.58,1.38-.42,4.28-1.3,5.27-3.88.07-.17,1-2.58-.2-3.88-2-2.21-7.62,1.48-8.95-.19-1.19-1.51,1.35-7.06,4.95-7.59,2.6-.38,4.9,2,7,4.21,1.94,2.06,2,4.93,4.22,5.62a3.71,3.71,0,0,0,1.31.15"/><path class="cls-8" d="M250.23,282.4a68.8,68.8,0,0,1,7.12.2c6.29.49,10.8.85,15.29,3.59a15.46,15.46,0,0,1,6.71,6.89c.29.66,3.24,7.61-1.09,13.13-4.89,6.22-13.48,3.77-14.12,3.58-1.38-.42-4.28-1.3-5.27-3.88-.06-.17-1-2.58.2-3.88,2-2.22,7.62,1.48,8.95-.2,1.19-1.51-1.35-7.06-4.95-7.58-2.6-.38-4.9,2-7,4.21-1.94,2.05-2,4.93-4.22,5.62a3.45,3.45,0,0,1-1.31.14"/><path class="cls-9" d="M177.79,225.45a9.17,9.17,0,0,0,3.15-1.47,11.24,11.24,0,0,0,3.11-3.9,18.67,18.67,0,0,1,6.27-5.81c4.56-2.67,12.22-3.13,15.79,1a9.42,9.42,0,0,1,2,5.65,10.86,10.86,0,0,1-3.13,8.15c-3.93,3.74-9.47,2.62-9.8,2.54-3.8-.83-4.45-3.29-9.81-5.44a25.45,25.45,0,0,0-5.55-1.53"/><path class="cls-10" d="M323.23,225.47a9,9,0,0,1-3.15-1.48A11.13,11.13,0,0,1,317,220.1a18.56,18.56,0,0,0-6.27-5.81c-4.55-2.67-12.22-3.13-15.79,1a9.42,9.42,0,0,0-2,5.65A10.87,10.87,0,0,0,296,229.1c3.93,3.74,9.47,2.61,9.8,2.54,3.8-.83,4.46-3.29,9.81-5.45a25.31,25.31,0,0,1,5.55-1.52"/><path class="cls-11" d="M250.45,229.36c-2.06-1.61-5.24-4.11-9.09-7.23-7.53-6.1-9.24-7.81-11.51-7.49-3.42.49-4.17,5-7.86,12-7.74,14.64-14.45,13.61-19.21,26.48a38.55,38.55,0,0,0-2.86,15.43c.21,5.46,1.59,7,1.43,12.57-.23,7.8-3.24,14.15-4,14-.52-.1.56-3.12-.57-7.43-.44-1.67-2.07-6.79-6.57-10-.47-.34-.7-.46-6-4-1.46-1-2.62-1.78-2.86-3.15a3.4,3.4,0,0,1,.86-2.85c1.51-1.58,4-.5,6-.86,4.07-.72,5.67-7.12,8-13.43,4.49-12.19,6.55-10.09,10.57-22,0,0,3.54-10.5,1.71-18.85a8.75,8.75,0,0,0-2.57-4.86,8.08,8.08,0,0,0-5.24-2c-2.65,0-5.64,1.37-6.7,3.62-.47,1-.54,2.09-1.09,2.16s-1-.87-1.43-1.5c-1.71-2.45-5-3-5.75-3.12-4.58-.75-9.07,3.63-11,7a19.38,19.38,0,0,0-1.88,5.08c-.79,3.54-.28,5.77-.8,5.89s-2.5-3.19-2.94-7a17.85,17.85,0,0,1,2.41-10.7c2.63-4.86,5.3-6,12.57-12,11.31-9.45,12.57-13.27,18.19-13.64,2.8-.18,5.07.77,9.63,2.68,8.83,3.69,11.82,7.65,17.18,10.6,4.43,2.44,11.32,4.64,21.95,3.25"/><path class="cls-12" d="M250.57,229.37c2.06-1.6,5.24-4.1,9.09-7.22,7.53-6.11,9.24-7.81,11.51-7.49,3.42.49,4.17,5,7.86,12,7.74,14.63,14.45,13.6,19.21,26.48a38.51,38.51,0,0,1,2.86,15.43c-.21,5.46-1.59,7-1.43,12.57.23,7.8,3.24,14.15,4,14,.52-.1-.56-3.12.57-7.43.44-1.67,2.07-6.8,6.57-10,.47-.33.7-.45,6-4,1.46-1,2.62-1.77,2.86-3.14a3.42,3.42,0,0,0-.86-2.86c-1.51-1.57-4-.5-6-.85-4.07-.72-5.67-7.12-8-13.43-4.49-12.2-6.55-10.09-10.57-22,0,0-3.54-10.5-1.71-18.86a8.75,8.75,0,0,1,2.57-4.85,8.08,8.08,0,0,1,5.24-2c2.66,0,5.64,1.37,6.7,3.62.47,1,.54,2.09,1.09,2.16s1-.88,1.43-1.5c1.71-2.45,5-3,5.75-3.12,4.58-.75,9.07,3.62,11,7a19.38,19.38,0,0,1,1.88,5.08c.79,3.54.28,5.77.8,5.88s2.5-3.18,2.94-6.95a17.83,17.83,0,0,0-2.41-10.7c-2.63-4.87-5.3-6-12.57-12-11.3-9.46-12.57-13.27-18.19-13.64-2.8-.19-5.07.77-9.63,2.67-8.83,3.69-11.82,7.66-17.18,10.61-4.43,2.44-11.32,4.63-22,3.25"/></svg>