<svg xmlns="http://www.w3.org/2000/svg" xmlns:xlink="http://www.w3.org/1999/xlink" viewBox="0 0 500 500"><defs><style>.cls-1{fill:url(#radial-gradient);}.cls-2{fill:url(#linear-gradient);}.cls-3,.cls-6{fill:#666;}.cls-3{opacity:0.25;}.cls-4{fill:url(#radial-gradient-2);}.cls-5{fill:url(#linear-gradient-2);}.cls-7{fill:url(#radial-gradient-3);}.cls-8{fill:url(#radial-gradient-4);}.cls-9{fill:url(#linear-gradient-3);}.cls-10{fill:url(#radial-gradient-5);}</style><radialGradient id="radial-gradient" cx="253.12" cy="242.9" fy="122.50594476823316" r="194.81" gradientUnits="userSpaceOnUse"><stop offset="0.84" stop-color="#ffd928"/><stop offset="0.91" stop-color="#ecb019"/><stop offset="1" stop-color="#cd6c00"/></radialGradient><linearGradient id="linear-gradient" x1="253.97" y1="67.95" x2="253.97" y2="411.46" gradientUnits="userSpaceOnUse"><stop offset="0" stop-color="#fffde1"/><stop offset="0.01" stop-color="#fffcde"/><stop offset="0.25" stop-color="#ffed80"/><stop offset="0.42" stop-color="#ffe345"/><stop offset="0.5" stop-color="#ffdf2e"/><stop offset="0.7" stop-color="#efba1e"/><stop offset="0.89" stop-color="#e39d12"/><stop offset="1" stop-color="#de920d"/></linearGradient><radialGradient id="radial-gradient-2" cx="196.83" cy="216.43" r="20.91" gradientUnits="userSpaceOnUse"><stop offset="0" stop-color="#6a3200"/><stop offset="0.34" stop-color="#673100"/><stop offset="0.56" stop-color="#5e2d00"/><stop offset="0.75" stop-color="#4f2600"/><stop offset="0.92" stop-color="#3a1d00"/><stop offset="1" stop-color="#2d1700"/></radialGradient><linearGradient id="linear-gradient-2" x1="206.52" y1="611.57" x2="214.26" y2="589.88" gradientTransform="matrix(1, 0, 0, -1, 0, 916.28)" gradientUnits="userSpaceOnUse"><stop offset="0" stop-color="#6a3200"/><stop offset="0.47" stop-color="#502600"/><stop offset="1" stop-color="#2d1700"/></linearGradient><radialGradient id="radial-gradient-3" cx="136.52" cy="189.63" r="14.52" gradientTransform="matrix(-0.88, -0.48, -0.48, 0.88, 388.6, 90.42)" xlink:href="#radial-gradient-2"/><radialGradient id="radial-gradient-4" cx="196.83" cy="216.43" r="20.91" gradientTransform="matrix(-1, 0, 0, 1, 500.74, 0)" xlink:href="#radial-gradient-2"/><linearGradient id="linear-gradient-3" x1="206.52" y1="611.57" x2="214.26" y2="589.88" gradientTransform="translate(500.74 916.28) rotate(180)" xlink:href="#linear-gradient-2"/><radialGradient id="radial-gradient-5" cx="136.52" cy="189.63" r="14.52" gradientTransform="translate(112.14 90.42) rotate(-28.89)" xlink:href="#radial-gradient-2"/></defs><g id="Layer_2" data-name="Layer 2"><circle class="cls-1" cx="253.12" cy="243.55" r="194.72"/><ellipse class="cls-2" cx="253.97" cy="243.55" rx="178.97" ry="177.42"/><path class="cls-3" d="M428.78,248.8c4.42,5.53,3.51,12.75,1.52,26.95-8.59,61.14-57.21,99.51-67.63,107.35-11.93,9-51.06,37.59-108.7,37.87-5,0-78.66-.79-132.46-58.1-13.08-13.94-36.71-43.7-43.36-86-3-18.93-4.52-28.75,1.36-35.35,19.64-22,80.44,38.62,169.05,41.72C341.32,286.5,409.57,224.76,428.78,248.8Z"/></g><g id="Layer_1" data-name="Layer 1"><path class="cls-4" d="M218.34,208.88c3.32,10.59-7.45,27.19-21.48,27.18-13.77,0-25.09-16-21.48-27.18S196.79,194,208.08,199C209.9,199.77,216.37,202.61,218.34,208.88Z"/><path class="cls-5" d="M251.68,294.23c-12-.06-37.3,1.64-58,19.34-15.29,13.06-23.12,30.6-21.4,32,1.88,1.5,13.84-17.57,37.64-28.88a94.66,94.66,0,0,1,41-8.76"/><path class="cls-6" d="M175.32,211.16c-1,.14-2,11.27,2.89,22.64.89,2.06,7.23,16.29,19,16.2,11.5-.09,17.72-13.77,18.37-15.28,5.12-11.7,3.9-23.39,2.71-23.56s-.87,12.31-9.83,19.3a18.91,18.91,0,0,1-12,4.1c-6.82-.24-11.35-4.53-12.88-6C176,221.17,176.26,211,175.32,211.16Z"/><path class="cls-7" d="M197.45,186.68c0-2.21-30.13-8.51-36.81,1.91-1.57,2.45-2.31,6.55-1.72,6.82s1.39-2.37,3.6-4.38c5.74-5.26,17.18-3.72,25.72-2.57a14.81,14.81,0,0,0,4.26,0C194.26,188.19,197.45,187.4,197.45,186.68Z"/><path class="cls-8" d="M282.4,208.88c-3.32,10.59,7.45,27.19,21.48,27.18,13.77,0,25.09-16,21.48-27.18S304,194,292.66,199C290.84,199.77,284.37,202.61,282.4,208.88Z"/><path class="cls-9" d="M249.07,294.23c12-.06,37.29,1.64,58,19.34,15.29,13.06,23.11,30.6,21.4,32-1.89,1.5-13.84-17.57-37.65-28.88a94.64,94.64,0,0,0-41-8.76"/><path class="cls-6" d="M325.42,211.16c1,.14,2,11.27-2.89,22.64-.89,2.06-7.23,16.29-19,16.2-11.49-.09-17.71-13.77-18.37-15.28-5.12-11.7-3.9-23.39-2.7-23.56s.86,12.31,9.83,19.3a18.85,18.85,0,0,0,12.05,4.1c6.81-.24,11.34-4.53,12.87-6C324.77,221.17,324.48,211,325.42,211.16Z"/><path class="cls-10" d="M303.29,186.68c0-2.21,30.13-8.51,36.82,1.91,1.57,2.45,2.3,6.55,1.72,6.82s-1.4-2.37-3.6-4.38c-5.75-5.26-17.18-3.72-25.73-2.57a14.75,14.75,0,0,1-4.25,0C306.48,188.19,303.29,187.4,303.29,186.68Z"/><path class="cls-8" d="M282.4,208.88c-3.32,10.59,7.45,27.19,21.48,27.18,13.77,0,25.09-16,21.48-27.18S304,194,292.66,199C290.84,199.77,284.37,202.61,282.4,208.88Z"/><path class="cls-9" d="M249.07,294.23c12-.06,37.29,1.64,58,19.34,15.29,13.06,23.11,30.6,21.4,32-1.89,1.5-13.84-17.57-37.65-28.88a94.64,94.64,0,0,0-41-8.76"/><path class="cls-6" d="M325.42,211.16c1,.14,2,11.27-2.89,22.64-.89,2.06-7.23,16.29-19,16.2-11.49-.09-17.71-13.77-18.37-15.28-5.12-11.7-3.9-23.39-2.7-23.56s.86,12.31,9.83,19.3a18.85,18.85,0,0,0,12.05,4.1c6.81-.24,11.34-4.53,12.87-6C324.77,221.17,324.48,211,325.42,211.16Z"/><path class="cls-10" d="M303.29,186.68c0-2.21,30.13-8.51,36.82,1.91,1.57,2.45,2.3,6.55,1.72,6.82s-1.4-2.37-3.6-4.38c-5.75-5.26-17.18-3.72-25.73-2.57a14.75,14.75,0,0,1-4.25,0C306.48,188.19,303.29,187.4,303.29,186.68Z"/><path class="cls-4" d="M218.34,208.88c3.32,10.59-7.45,27.19-21.48,27.18-13.77,0-25.09-16-21.48-27.18S196.79,194,208.08,199C209.9,199.77,216.37,202.61,218.34,208.88Z"/><path class="cls-5" d="M251.68,294.23c-12-.06-37.3,1.64-58,19.34-15.29,13.06-23.12,30.6-21.4,32,1.88,1.5,13.84-17.57,37.64-28.88a94.66,94.66,0,0,1,41-8.76"/><path class="cls-6" d="M175.32,211.16c-1,.14-2,11.27,2.89,22.64.89,2.06,7.23,16.29,19,16.2,11.5-.09,17.72-13.77,18.37-15.28,5.12-11.7,3.9-23.39,2.71-23.56s-.87,12.31-9.83,19.3a18.91,18.91,0,0,1-12,4.1c-6.82-.24-11.35-4.53-12.88-6C176,221.17,176.26,211,175.32,211.16Z"/><path class="cls-7" d="M197.45,186.68c0-2.21-30.13-8.51-36.81,1.91-1.57,2.45-2.31,6.55-1.72,6.82s1.39-2.37,3.6-4.38c5.74-5.26,17.18-3.72,25.72-2.57a14.81,14.81,0,0,0,4.26,0C194.26,188.19,197.45,187.4,197.45,186.68Z"/></g></svg>