<svg xmlns="http://www.w3.org/2000/svg" xmlns:xlink="http://www.w3.org/1999/xlink" viewBox="0 0 500 500"><defs><style>.cls-1{fill:url(#radial-gradient);}.cls-2{fill:url(#linear-gradient);}.cls-3{fill:#29abe2;}.cls-4{fill:url(#linear-gradient-2);}.cls-5{fill:url(#linear-gradient-3);}.cls-6{fill:url(#linear-gradient-4);}.cls-7{fill:url(#radial-gradient-2);}.cls-8{fill:url(#radial-gradient-3);}.cls-9{fill:url(#linear-gradient-5);}.cls-10{fill:url(#linear-gradient-6);}.cls-11{fill:url(#linear-gradient-7);}.cls-12{fill:url(#radial-gradient-4);}.cls-13{fill:url(#radial-gradient-5);}.cls-14{fill:url(#linear-gradient-13);}</style><radialGradient id="radial-gradient" cx="253.12" cy="242.9" fy="122.50594476823316" r="194.81" gradientUnits="userSpaceOnUse"><stop offset="0.84" stop-color="#ffd928"/><stop offset="0.91" stop-color="#ecb019"/><stop offset="1" stop-color="#cd6c00"/></radialGradient><linearGradient id="linear-gradient" x1="253.97" y1="67.95" x2="253.97" y2="411.46" gradientUnits="userSpaceOnUse"><stop offset="0" stop-color="#fffde1"/><stop offset="0.01" stop-color="#fffcde"/><stop offset="0.25" stop-color="#ffed80"/><stop offset="0.42" stop-color="#ffe345"/><stop offset="0.5" stop-color="#ffdf2e"/><stop offset="0.7" stop-color="#efba1e"/><stop offset="0.89" stop-color="#e39d12"/><stop offset="1" stop-color="#de920d"/></linearGradient><linearGradient id="linear-gradient-2" x1="172.98" y1="372.4" x2="201.6" y2="292.14" gradientUnits="userSpaceOnUse"><stop offset="0" stop-color="#6a3200"/><stop offset="0.47" stop-color="#502600"/><stop offset="1" stop-color="#2d1700"/></linearGradient><linearGradient id="linear-gradient-3" x1="136.57" y1="308.69" x2="243.5" y2="308.69" gradientUnits="userSpaceOnUse"><stop offset="0" stop-color="#e6e6e6"/><stop offset="0.08" stop-color="#e8e8e8"/><stop offset="1" stop-color="#fff"/></linearGradient><linearGradient id="linear-gradient-4" x1="152.21" y1="188.19" x2="152.21" y2="274.31" gradientTransform="matrix(0.82, 0.58, -0.58, 0.82, 143.94, -28.14)" gradientUnits="userSpaceOnUse"><stop offset="0" stop-color="#d4ecff"/><stop offset="1" stop-color="#29abe2"/></linearGradient><radialGradient id="radial-gradient-2" cx="141.28" cy="161.42" r="14.52" gradientTransform="matrix(-1, 0, 0, 1, 313.91, 0)" gradientUnits="userSpaceOnUse"><stop offset="0" stop-color="#6a3200"/><stop offset="0.34" stop-color="#673100"/><stop offset="0.56" stop-color="#5e2d00"/><stop offset="0.75" stop-color="#4f2600"/><stop offset="0.92" stop-color="#3a1d00"/><stop offset="1" stop-color="#2d1700"/></radialGradient><radialGradient id="radial-gradient-3" cx="190.68" cy="192.13" r="13.43" gradientTransform="translate(-51.93) scale(1.29 1)" xlink:href="#radial-gradient-2"/><linearGradient id="linear-gradient-5" x1="172.98" y1="372.4" x2="201.6" y2="292.14" gradientTransform="matrix(-1, 0, 0, 1, 500.74, 0)" xlink:href="#linear-gradient-2"/><linearGradient id="linear-gradient-6" x1="136.57" y1="308.69" x2="243.5" y2="308.69" gradientTransform="matrix(-1, 0, 0, 1, 500.74, 0)" xlink:href="#linear-gradient-3"/><linearGradient id="linear-gradient-7" x1="152.21" y1="188.19" x2="152.21" y2="274.31" gradientTransform="matrix(-0.82, 0.58, 0.58, 0.82, 356.8, -28.14)" xlink:href="#linear-gradient-4"/><radialGradient id="radial-gradient-4" cx="141.28" cy="161.42" r="14.52" gradientTransform="translate(186.83)" xlink:href="#radial-gradient-2"/><radialGradient id="radial-gradient-5" cx="190.68" cy="192.13" r="13.43" gradientTransform="matrix(-1.29, 0, 0, 1, 552.67, 0)" xlink:href="#radial-gradient-2"/><linearGradient id="linear-gradient-13" x1="152.21" y1="188.19" x2="152.21" y2="274.31" xlink:href="#linear-gradient-4"/></defs><g id="Layer_2" data-name="Layer 2"><circle class="cls-1" cx="253.12" cy="243.55" r="194.72"/><ellipse class="cls-2" cx="253.97" cy="243.55" rx="178.97" ry="177.42"/><path class="cls-3" d="M378,74.15l0,.07,0-.07Z"/></g><g id="Layer_1" data-name="Layer 1"><path class="cls-4" d="M250.42,395.79a149.73,149.73,0,0,1-44.35-8c-10.58-3.63-42.45-15.07-66-46.45-4.27-5.7-18-25-19.52-50-.27-4.47-1.07-17.47,4.48-19.93,4.28-1.9,10.4,3.36,11.79,4.48,9.8,7.9,39,15.26,113.7,17.53"/><path class="cls-5" d="M252.68,334.3c-8.16-.11-14.83-.27-19.29-.38,0,0-38.77-1-87.06-12.57a14.5,14.5,0,0,1-7.74-4.28A13.11,13.11,0,0,1,136.2,313c-3.51-9-5.55-16.82-5.84-24.94-.06-1.6-.09-4.23,1.2-4.83.84-.4,2.67.68,2.67.68h0a403.62,403.62,0,0,0,81,15.93c13.57,1.25,26.4,1.73,38.37,1.69"/><path class="cls-6" d="M141.28,281.6a24.24,24.24,0,1,1-33.59-33.92c2.19-1.83,4.4-3.66,6.67-5.48a421.87,421.87,0,0,1,49.08-34.07q-6.9,27.7-15.74,56.47c-.81,2.65-1.63,5.26-2.47,7.87A23.81,23.81,0,0,1,141.28,281.6Z"/><path class="cls-7" d="M188.29,148.42c-1.08-1.94-30.5,7.1-31.31,19.46-.2,2.9,1.14,6.84,1.78,6.8s.08-2.75,1-5.58c2.49-7.38,13.24-11.55,21.28-14.67a15.2,15.2,0,0,0,3.72-2.07C186.23,151.28,188.63,149.05,188.29,148.42Z"/><path class="cls-8" d="M174.36,201.58c-1.26-.66-.59-6.5,2.57-11,5.65-8.05,16.79-8.2,18.16-8.2,2.2,0,12.26.32,17.61,7.73,3.43,4.77,3.91,11,2.57,11.69s-3.54-5-10.29-7.95a23.3,23.3,0,0,0-10-1.63,25.32,25.32,0,0,0-11.69,2.57C177.42,197.8,175.52,202.19,174.36,201.58Z"/><path class="cls-9" d="M250.32,395.79a149.68,149.68,0,0,0,44.35-8c10.59-3.63,42.45-15.07,66-46.45,4.28-5.7,18-25,19.52-50,.27-4.47,1.07-17.47-4.47-19.93-4.29-1.9-10.41,3.36-11.8,4.48-9.8,7.9-38.94,15.26-113.69,17.53"/><path class="cls-10" d="M248.07,334.3c8.16-.11,14.83-.27,19.28-.38,0,0,38.77-1,87.07-12.57a14.48,14.48,0,0,0,7.73-4.28,13.11,13.11,0,0,0,2.39-4.12c3.51-9,5.55-16.82,5.85-24.94.05-1.6.08-4.23-1.21-4.83-.84-.4-2.67.68-2.67.68h0a403.62,403.62,0,0,1-81,15.93c-13.56,1.25-26.39,1.73-38.37,1.69"/><path class="cls-11" d="M359.46,281.6a24.24,24.24,0,1,0,33.6-33.92q-3.29-2.75-6.67-5.48a422.72,422.72,0,0,0-49.08-34.07q6.88,27.7,15.73,56.47c.82,2.65,1.63,5.26,2.47,7.87A24.12,24.12,0,0,0,359.46,281.6Z"/><path class="cls-12" d="M312.46,148.42c1.07-1.94,30.49,7.1,31.31,19.46.19,2.9-1.14,6.84-1.79,6.8s-.08-2.75-1-5.58c-2.49-7.38-13.25-11.55-21.29-14.67a15.2,15.2,0,0,1-3.72-2.07C314.52,151.28,312.11,149.05,312.46,148.42Z"/><path class="cls-13" d="M326.39,201.58c1.25-.66.58-6.5-2.57-11-5.66-8.05-16.79-8.2-18.16-8.2-2.21,0-12.27.32-17.61,7.73-3.44,4.77-3.91,11-2.58,11.69s3.54-5,10.29-7.95a23.32,23.32,0,0,1,10.05-1.63,25.32,25.32,0,0,1,11.69,2.57C323.32,197.8,325.22,202.19,326.39,201.58Z"/><path class="cls-9" d="M250.32,395.79a149.68,149.68,0,0,0,44.35-8c10.59-3.63,42.45-15.07,66-46.45,4.28-5.7,18-25,19.52-50,.27-4.47,1.07-17.47-4.47-19.93-4.29-1.9-10.41,3.36-11.8,4.48-9.8,7.9-38.94,15.26-113.69,17.53"/><path class="cls-10" d="M248.07,334.3c8.16-.11,14.83-.27,19.28-.38,0,0,38.77-1,87.07-12.57a14.48,14.48,0,0,0,7.73-4.28,13.11,13.11,0,0,0,2.39-4.12c3.51-9,5.55-16.82,5.85-24.94.05-1.6.08-4.23-1.21-4.83-.84-.4-2.67.68-2.67.68h0a403.62,403.62,0,0,1-81,15.93c-13.56,1.25-26.39,1.73-38.37,1.69"/><path class="cls-11" d="M359.46,281.6a24.24,24.24,0,1,0,33.6-33.92q-3.29-2.75-6.67-5.48a422.72,422.72,0,0,0-49.08-34.07q6.88,27.7,15.73,56.47c.82,2.65,1.63,5.26,2.47,7.87A24.12,24.12,0,0,0,359.46,281.6Z"/><path class="cls-12" d="M312.46,148.42c1.07-1.94,30.49,7.1,31.31,19.46.19,2.9-1.14,6.84-1.79,6.8s-.08-2.75-1-5.58c-2.49-7.38-13.25-11.55-21.29-14.67a15.2,15.2,0,0,1-3.72-2.07C314.52,151.28,312.11,149.05,312.46,148.42Z"/><path class="cls-13" d="M326.39,201.58c1.25-.66.58-6.5-2.57-11-5.66-8.05-16.79-8.2-18.16-8.2-2.21,0-12.27.32-17.61,7.73-3.44,4.77-3.91,11-2.58,11.69s3.54-5,10.29-7.95a23.32,23.32,0,0,1,10.05-1.63,25.32,25.32,0,0,1,11.69,2.57C323.32,197.8,325.22,202.19,326.39,201.58Z"/><path class="cls-4" d="M250.42,395.79a149.73,149.73,0,0,1-44.35-8c-10.58-3.63-42.45-15.07-66-46.45-4.27-5.7-18-25-19.52-50-.27-4.47-1.07-17.47,4.48-19.93,4.28-1.9,10.4,3.36,11.79,4.48,9.8,7.9,39,15.26,113.7,17.53"/><path class="cls-5" d="M252.68,334.3c-8.16-.11-14.83-.27-19.29-.38,0,0-38.77-1-87.06-12.57a14.5,14.5,0,0,1-7.74-4.28A13.11,13.11,0,0,1,136.2,313c-3.51-9-5.55-16.82-5.84-24.94-.06-1.6-.09-4.23,1.2-4.83.84-.4,2.67.68,2.67.68h0a403.62,403.62,0,0,0,81,15.93c13.57,1.25,26.4,1.73,38.37,1.69"/><path class="cls-14" d="M141.28,281.6a24.24,24.24,0,1,1-33.59-33.92c2.19-1.83,4.4-3.66,6.67-5.48a421.87,421.87,0,0,1,49.08-34.07q-6.9,27.7-15.74,56.47c-.81,2.65-1.63,5.26-2.47,7.87A23.81,23.81,0,0,1,141.28,281.6Z"/><path class="cls-7" d="M188.29,148.42c-1.08-1.94-30.5,7.1-31.31,19.46-.2,2.9,1.14,6.84,1.78,6.8s.08-2.75,1-5.58c2.49-7.38,13.24-11.55,21.28-14.67a15.2,15.2,0,0,0,3.72-2.07C186.23,151.28,188.63,149.05,188.29,148.42Z"/><path class="cls-8" d="M174.36,201.58c-1.26-.66-.59-6.5,2.57-11,5.65-8.05,16.79-8.2,18.16-8.2,2.2,0,12.26.32,17.61,7.73,3.43,4.77,3.91,11,2.57,11.69s-3.54-5-10.29-7.95a23.3,23.3,0,0,0-10-1.63,25.32,25.32,0,0,0-11.69,2.57C177.42,197.8,175.52,202.19,174.36,201.58Z"/></g></svg>