<svg xmlns="http://www.w3.org/2000/svg" xmlns:xlink="http://www.w3.org/1999/xlink" viewBox="0 0 500 500"><defs><style>.cls-1{fill:url(#radial-gradient);}.cls-2{fill:url(#linear-gradient);}.cls-3{fill:url(#radial-gradient-2);}.cls-4{fill:url(#linear-gradient-2);}.cls-5{fill:url(#linear-gradient-3);}.cls-6{fill:url(#radial-gradient-3);}.cls-7{fill:url(#radial-gradient-4);}.cls-8{fill:url(#linear-gradient-4);}.cls-9{fill:url(#linear-gradient-5);}.cls-10{fill:url(#radial-gradient-5);}</style><radialGradient id="radial-gradient" cx="253.12" cy="242.9" fy="122.50594476823316" r="194.81" gradientUnits="userSpaceOnUse"><stop offset="0.84" stop-color="#ffd928"/><stop offset="0.91" stop-color="#ecb019"/><stop offset="1" stop-color="#cd6c00"/></radialGradient><linearGradient id="linear-gradient" x1="253.97" y1="67.95" x2="253.97" y2="411.46" gradientUnits="userSpaceOnUse"><stop offset="0" stop-color="#fffde1"/><stop offset="0.01" stop-color="#fffcde"/><stop offset="0.25" stop-color="#ffed80"/><stop offset="0.42" stop-color="#ffe345"/><stop offset="0.5" stop-color="#ffdf2e"/><stop offset="0.7" stop-color="#efba1e"/><stop offset="0.89" stop-color="#e39d12"/><stop offset="1" stop-color="#de920d"/></linearGradient><radialGradient id="radial-gradient-2" cx="194.86" cy="201.86" r="24.5" gradientTransform="translate(0 -108.46) scale(1 1.47)" gradientUnits="userSpaceOnUse"><stop offset="0" stop-color="#6a3200"/><stop offset="0.34" stop-color="#673100"/><stop offset="0.56" stop-color="#5e2d00"/><stop offset="0.75" stop-color="#4f2600"/><stop offset="0.92" stop-color="#3a1d00"/><stop offset="1" stop-color="#2d1700"/></radialGradient><linearGradient id="linear-gradient-2" x1="172.98" y1="372.4" x2="201.6" y2="292.14" gradientUnits="userSpaceOnUse"><stop offset="0" stop-color="#6a3200"/><stop offset="0.47" stop-color="#502600"/><stop offset="1" stop-color="#2d1700"/></linearGradient><linearGradient id="linear-gradient-3" x1="136.57" y1="308.69" x2="243.5" y2="308.69" gradientUnits="userSpaceOnUse"><stop offset="0" stop-color="#e6e6e6"/><stop offset="0.08" stop-color="#e8e8e8"/><stop offset="1" stop-color="#fff"/></linearGradient><radialGradient id="radial-gradient-3" cx="190.7" cy="162.53" r="15.52" gradientTransform="translate(-43.66 -91.03) scale(1.25 1.61)" xlink:href="#radial-gradient-2"/><radialGradient id="radial-gradient-4" cx="194.86" cy="201.86" r="24.5" gradientTransform="matrix(-1, 0, 0, 1.47, 500.74, -108.46)" xlink:href="#radial-gradient-2"/><linearGradient id="linear-gradient-4" x1="172.98" y1="372.4" x2="201.6" y2="292.14" gradientTransform="matrix(-1, 0, 0, 1, 500.74, 0)" xlink:href="#linear-gradient-2"/><linearGradient id="linear-gradient-5" x1="136.57" y1="308.69" x2="243.5" y2="308.69" gradientTransform="matrix(-1, 0, 0, 1, 500.74, 0)" xlink:href="#linear-gradient-3"/><radialGradient id="radial-gradient-5" cx="190.7" cy="162.53" r="15.52" gradientTransform="matrix(-1.25, 0, 0, 1.61, 544.41, -91.03)" xlink:href="#radial-gradient-2"/></defs><g id="Layer_2" data-name="Layer 2"><circle class="cls-1" cx="253.12" cy="243.55" r="194.72"/><ellipse class="cls-2" cx="253.97" cy="243.55" rx="178.97" ry="177.42"/></g><g id="Layer_1" data-name="Layer 1"><ellipse class="cls-3" cx="194.86" cy="188.99" rx="21.48" ry="40.06"/><path class="cls-4" d="M250.42,395.79a149.73,149.73,0,0,1-44.35-8c-10.58-3.63-42.45-15.07-66-46.45-4.27-5.7-18-25-19.52-50-.27-4.47-1.07-17.47,4.48-19.93,4.28-1.9,10.4,3.36,11.79,4.48,9.8,7.9,39,15.26,113.7,17.53"/><path class="cls-5" d="M252.68,334.3c-8.16-.11-14.83-.27-19.29-.38,0,0-38.77-1-87.06-12.57a14.5,14.5,0,0,1-7.74-4.28A13.11,13.11,0,0,1,136.2,313c-3.51-9-5.55-16.82-5.84-24.94-.06-1.6-.09-4.23,1.2-4.83.84-.4,2.67.68,2.67.68h0a403.62,403.62,0,0,0,81,15.93c13.57,1.25,26.4,1.73,38.37,1.69"/><path class="cls-6" d="M174,192.73c-.67,0-2.06-12.3,2.8-25.52.85-2.33,7-18.38,18.35-18.27,11.11.09,17.12,15.53,17.76,17.22,5.12,13.67,3.26,26.55,2.61,26.57s.71-11.62-5.87-24.43c-2.36-4.59-7.45-14.48-14.53-14.48-6.89,0-11.86,9.36-14.54,14.42C173.79,181.1,174.69,192.77,174,192.73Z"/><ellipse class="cls-7" cx="305.88" cy="188.99" rx="21.48" ry="40.06"/><path class="cls-8" d="M250.32,395.79a149.68,149.68,0,0,0,44.35-8c10.59-3.63,42.45-15.07,66-46.45,4.28-5.7,18-25,19.52-50,.27-4.47,1.07-17.47-4.47-19.93-4.29-1.9-10.41,3.36-11.8,4.48-9.8,7.9-38.94,15.26-113.69,17.53"/><path class="cls-9" d="M248.07,334.3c8.16-.11,14.83-.27,19.28-.38,0,0,38.77-1,87.07-12.57a14.48,14.48,0,0,0,7.73-4.28,13.11,13.11,0,0,0,2.39-4.12c3.51-9,5.55-16.82,5.85-24.94.05-1.6.08-4.23-1.21-4.83-.84-.4-2.67.68-2.67.68h0a403.62,403.62,0,0,1-81,15.93c-13.56,1.25-26.39,1.73-38.37,1.69"/><path class="cls-10" d="M326.7,192.73c.67,0,2.07-12.3-2.8-25.52-.85-2.33-7-18.38-18.35-18.27-11.11.09-17.12,15.53-17.75,17.22-5.13,13.67-3.27,26.55-2.61,26.57s-.72-11.62,5.86-24.43c2.37-4.59,7.45-14.48,14.54-14.48,6.89,0,11.85,9.36,14.53,14.42C327,181.1,326.06,192.77,326.7,192.73Z"/><ellipse class="cls-7" cx="305.88" cy="188.99" rx="21.48" ry="40.06"/><path class="cls-8" d="M250.32,395.79a149.68,149.68,0,0,0,44.35-8c10.59-3.63,42.45-15.07,66-46.45,4.28-5.7,18-25,19.52-50,.27-4.47,1.07-17.47-4.47-19.93-4.29-1.9-10.41,3.36-11.8,4.48-9.8,7.9-38.94,15.26-113.69,17.53"/><path class="cls-9" d="M248.07,334.3c8.16-.11,14.83-.27,19.28-.38,0,0,38.77-1,87.07-12.57a14.48,14.48,0,0,0,7.73-4.28,13.11,13.11,0,0,0,2.39-4.12c3.51-9,5.55-16.82,5.85-24.94.05-1.6.08-4.23-1.21-4.83-.84-.4-2.67.68-2.67.68h0a403.62,403.62,0,0,1-81,15.93c-13.56,1.25-26.39,1.73-38.37,1.69"/><path class="cls-10" d="M326.7,192.73c.67,0,2.07-12.3-2.8-25.52-.85-2.33-7-18.38-18.35-18.27-11.11.09-17.12,15.53-17.75,17.22-5.13,13.67-3.27,26.55-2.61,26.57s-.72-11.62,5.86-24.43c2.37-4.59,7.45-14.48,14.54-14.48,6.89,0,11.85,9.36,14.53,14.42C327,181.1,326.06,192.77,326.7,192.73Z"/><ellipse class="cls-3" cx="194.86" cy="188.99" rx="21.48" ry="40.06"/><path class="cls-4" d="M250.42,395.79a149.73,149.73,0,0,1-44.35-8c-10.58-3.63-42.45-15.07-66-46.45-4.27-5.7-18-25-19.52-50-.27-4.47-1.07-17.47,4.48-19.93,4.28-1.9,10.4,3.36,11.79,4.48,9.8,7.9,39,15.26,113.7,17.53"/><path class="cls-5" d="M252.68,334.3c-8.16-.11-14.83-.27-19.29-.38,0,0-38.77-1-87.06-12.57a14.5,14.5,0,0,1-7.74-4.28A13.11,13.11,0,0,1,136.2,313c-3.51-9-5.55-16.82-5.84-24.94-.06-1.6-.09-4.23,1.2-4.83.84-.4,2.67.68,2.67.68h0a403.62,403.62,0,0,0,81,15.93c13.57,1.25,26.4,1.73,38.37,1.69"/><path class="cls-6" d="M174,192.73c-.67,0-2.06-12.3,2.8-25.52.85-2.33,7-18.38,18.35-18.27,11.11.09,17.12,15.53,17.76,17.22,5.12,13.67,3.26,26.55,2.61,26.57s.71-11.62-5.87-24.43c-2.36-4.59-7.45-14.48-14.53-14.48-6.89,0-11.86,9.36-14.54,14.42C173.79,181.1,174.69,192.77,174,192.73Z"/></g></svg>