<svg xmlns="http://www.w3.org/2000/svg" xmlns:xlink="http://www.w3.org/1999/xlink" viewBox="0 0 500 500"><defs><style>.cls-1{fill:url(#radial-gradient);}.cls-2{fill:url(#linear-gradient);}.cls-3{fill:url(#linear-gradient-2);}.cls-4{fill:#29abe2;}.cls-5{fill:url(#linear-gradient-3);}.cls-6{fill:url(#linear-gradient-4);}.cls-7{fill:url(#radial-gradient-2);}.cls-8{fill:url(#linear-gradient-5);}.cls-9{fill:url(#linear-gradient-6);}.cls-10{fill:url(#radial-gradient-3);}</style><radialGradient id="radial-gradient" cx="253.12" cy="242.9" fy="122.50594476823316" r="194.81" gradientUnits="userSpaceOnUse"><stop offset="0.84" stop-color="#ffd928"/><stop offset="0.91" stop-color="#ecb019"/><stop offset="1" stop-color="#cd6c00"/></radialGradient><linearGradient id="linear-gradient" x1="253.97" y1="67.95" x2="253.97" y2="411.46" gradientUnits="userSpaceOnUse"><stop offset="0" stop-color="#fffde1"/><stop offset="0.01" stop-color="#fffcde"/><stop offset="0.25" stop-color="#ffed80"/><stop offset="0.42" stop-color="#ffe345"/><stop offset="0.5" stop-color="#ffdf2e"/><stop offset="0.7" stop-color="#efba1e"/><stop offset="0.89" stop-color="#e39d12"/><stop offset="1" stop-color="#de920d"/></linearGradient><linearGradient id="linear-gradient-2" x1="378.04" y1="80.63" x2="378.04" y2="166.74" gradientUnits="userSpaceOnUse"><stop offset="0" stop-color="#d4ecff"/><stop offset="1" stop-color="#29abe2"/></linearGradient><linearGradient id="linear-gradient-3" x1="172.98" y1="372.4" x2="201.6" y2="292.14" gradientUnits="userSpaceOnUse"><stop offset="0" stop-color="#6a3200"/><stop offset="0.47" stop-color="#502600"/><stop offset="1" stop-color="#2d1700"/></linearGradient><linearGradient id="linear-gradient-4" x1="136.57" y1="308.69" x2="243.5" y2="308.69" gradientUnits="userSpaceOnUse"><stop offset="0" stop-color="#e6e6e6"/><stop offset="0.08" stop-color="#e8e8e8"/><stop offset="1" stop-color="#fff"/></linearGradient><radialGradient id="radial-gradient-2" cx="190.68" cy="188.27" r="15.49" gradientTransform="translate(-51.93) scale(1.29 1)" gradientUnits="userSpaceOnUse"><stop offset="0" stop-color="#6a3200"/><stop offset="0.34" stop-color="#673100"/><stop offset="0.56" stop-color="#5e2d00"/><stop offset="0.75" stop-color="#4f2600"/><stop offset="0.92" stop-color="#3a1d00"/><stop offset="1" stop-color="#2d1700"/></radialGradient><linearGradient id="linear-gradient-5" x1="172.98" y1="372.4" x2="201.6" y2="292.14" gradientTransform="matrix(-1, 0, 0, 1, 500.74, 0)" xlink:href="#linear-gradient-3"/><linearGradient id="linear-gradient-6" x1="136.57" y1="308.69" x2="243.5" y2="308.69" gradientTransform="matrix(-1, 0, 0, 1, 500.74, 0)" xlink:href="#linear-gradient-4"/><radialGradient id="radial-gradient-3" cx="190.68" cy="188.27" r="15.49" gradientTransform="matrix(-1.29, 0, 0, 1, 552.67, 0)" xlink:href="#radial-gradient-2"/></defs><g id="Layer_2" data-name="Layer 2"><circle class="cls-1" cx="253.12" cy="243.55" r="194.72"/><ellipse class="cls-2" cx="253.97" cy="243.55" rx="178.97" ry="177.42"/><path class="cls-3" d="M402.28,147a24.24,24.24,0,1,1-47-8.34q1.1-4.14,2.29-8.32A422.17,422.17,0,0,1,378,74.22q10.35,26.61,19.71,55.21c.86,2.63,1.7,5.24,2.52,7.85A24.13,24.13,0,0,1,402.28,147Z"/><path class="cls-4" d="M378,74.15l0,.07,0-.07Z"/></g><g id="Layer_1" data-name="Layer 1"><path class="cls-5" d="M250.42,395.79a149.73,149.73,0,0,1-44.35-8c-10.58-3.63-42.45-15.07-66-46.45-4.27-5.7-18-25-19.52-50-.27-4.47-1.07-17.47,4.48-19.93,4.28-1.9,10.4,3.36,11.79,4.48,9.8,7.9,39,15.26,113.7,17.53"/><path class="cls-6" d="M252.68,334.3c-8.16-.11-14.83-.27-19.29-.38,0,0-38.77-1-87.06-12.57a14.5,14.5,0,0,1-7.74-4.28A13.11,13.11,0,0,1,136.2,313c-3.51-9-5.55-16.82-5.84-24.94-.06-1.6-.09-4.23,1.2-4.83.84-.4,2.67.68,2.67.68h0a403.62,403.62,0,0,0,81,15.93c13.57,1.25,26.4,1.73,38.37,1.69"/><path class="cls-7" d="M173.32,201.86c-1-.25-1.52-8.63,2.89-15.84.89-1.45,7.23-11.4,19-11.34,11.5.06,17.72,9.64,18.37,10.69,4.69,7.51,3.64,16.3,2.71,16.49s-1.34-8.91-8.53-15.52c-1.51-1.39-6-5.49-12.29-5.5-7,0-11.92,5-14.07,7.28C175,194.71,174.26,202.1,173.32,201.86Z"/><path class="cls-8" d="M250.32,395.79a149.68,149.68,0,0,0,44.35-8c10.59-3.63,42.45-15.07,66-46.45,4.28-5.7,18-25,19.52-50,.27-4.47,1.07-17.47-4.47-19.93-4.29-1.9-10.41,3.36-11.8,4.48-9.8,7.9-38.94,15.26-113.69,17.53"/><path class="cls-9" d="M248.07,334.3c8.16-.11,14.83-.27,19.28-.38,0,0,38.77-1,87.07-12.57a14.48,14.48,0,0,0,7.73-4.28,13.11,13.11,0,0,0,2.39-4.12c3.51-9,5.55-16.82,5.85-24.94.05-1.6.08-4.23-1.21-4.83-.84-.4-2.67.68-2.67.68h0a403.62,403.62,0,0,1-81,15.93c-13.56,1.25-26.39,1.73-38.37,1.69"/><path class="cls-10" d="M327.42,201.86c1-.25,1.53-8.63-2.89-15.84-.89-1.45-7.23-11.4-19-11.34-11.49.06-17.71,9.64-18.37,10.69-4.69,7.51-3.64,16.3-2.7,16.49S285.8,193,293,186.34c1.51-1.39,6-5.49,12.29-5.5,7,0,11.92,5,14.07,7.28C325.71,194.71,326.48,202.1,327.42,201.86Z"/><path class="cls-8" d="M250.32,395.79a149.68,149.68,0,0,0,44.35-8c10.59-3.63,42.45-15.07,66-46.45,4.28-5.7,18-25,19.52-50,.27-4.47,1.07-17.47-4.47-19.93-4.29-1.9-10.41,3.36-11.8,4.48-9.8,7.9-38.94,15.26-113.69,17.53"/><path class="cls-9" d="M248.07,334.3c8.16-.11,14.83-.27,19.28-.38,0,0,38.77-1,87.07-12.57a14.48,14.48,0,0,0,7.73-4.28,13.11,13.11,0,0,0,2.39-4.12c3.51-9,5.55-16.82,5.85-24.94.05-1.6.08-4.23-1.21-4.83-.84-.4-2.67.68-2.67.68h0a403.62,403.62,0,0,1-81,15.93c-13.56,1.25-26.39,1.73-38.37,1.69"/><path class="cls-10" d="M327.42,201.86c1-.25,1.53-8.63-2.89-15.84-.89-1.45-7.23-11.4-19-11.34-11.49.06-17.71,9.64-18.37,10.69-4.69,7.51-3.64,16.3-2.7,16.49S285.8,193,293,186.34c1.51-1.39,6-5.49,12.29-5.5,7,0,11.92,5,14.07,7.28C325.71,194.71,326.48,202.1,327.42,201.86Z"/><path class="cls-5" d="M250.42,395.79a149.73,149.73,0,0,1-44.35-8c-10.58-3.63-42.45-15.07-66-46.45-4.27-5.7-18-25-19.52-50-.27-4.47-1.07-17.47,4.48-19.93,4.28-1.9,10.4,3.36,11.79,4.48,9.8,7.9,39,15.26,113.7,17.53"/><path class="cls-6" d="M252.68,334.3c-8.16-.11-14.83-.27-19.29-.38,0,0-38.77-1-87.06-12.57a14.5,14.5,0,0,1-7.74-4.28A13.11,13.11,0,0,1,136.2,313c-3.51-9-5.55-16.82-5.84-24.94-.06-1.6-.09-4.23,1.2-4.83.84-.4,2.67.68,2.67.68h0a403.62,403.62,0,0,0,81,15.93c13.57,1.25,26.4,1.73,38.37,1.69"/><path class="cls-7" d="M173.32,201.86c-1-.25-1.52-8.63,2.89-15.84.89-1.45,7.23-11.4,19-11.34,11.5.06,17.72,9.64,18.37,10.69,4.69,7.51,3.64,16.3,2.71,16.49s-1.34-8.91-8.53-15.52c-1.51-1.39-6-5.49-12.29-5.5-7,0-11.92,5-14.07,7.28C175,194.71,174.26,202.1,173.32,201.86Z"/></g></svg>