<svg xmlns="http://www.w3.org/2000/svg" xmlns:xlink="http://www.w3.org/1999/xlink" viewBox="0 0 500 500"><defs><style>.cls-1{fill:url(#radial-gradient);}.cls-2{fill:url(#linear-gradient);}.cls-3{fill:aqua;}.cls-4{fill:url(#radial-gradient-2);}.cls-5{fill:url(#linear-gradient-2);}.cls-6{fill:url(#radial-gradient-3);}.cls-7{fill:url(#linear-gradient-3);}</style><radialGradient id="radial-gradient" cx="253.12" cy="242.9" fy="122.50593542943167" r="194.81" gradientUnits="userSpaceOnUse"><stop offset="0.84" stop-color="#ffd928"/><stop offset="0.91" stop-color="#ecb019"/><stop offset="1" stop-color="#cd6c00"/></radialGradient><linearGradient id="linear-gradient" x1="253.97" y1="67.95" x2="253.97" y2="411.46" gradientUnits="userSpaceOnUse"><stop offset="0" stop-color="#fffde1"/><stop offset="0.01" stop-color="#fffcde"/><stop offset="0.25" stop-color="#ffed80"/><stop offset="0.42" stop-color="#ffe345"/><stop offset="0.5" stop-color="#ffdf2e"/><stop offset="0.7" stop-color="#efba1e"/><stop offset="0.89" stop-color="#e39d12"/><stop offset="1" stop-color="#de920d"/></linearGradient><radialGradient id="radial-gradient-2" cx="190.68" cy="188.27" r="15.49" gradientTransform="translate(-51.93) scale(1.29 1)" gradientUnits="userSpaceOnUse"><stop offset="0" stop-color="#6a3200"/><stop offset="0.34" stop-color="#673100"/><stop offset="0.56" stop-color="#5e2d00"/><stop offset="0.75" stop-color="#4f2600"/><stop offset="0.92" stop-color="#3a1d00"/><stop offset="1" stop-color="#2d1700"/></radialGradient><linearGradient id="linear-gradient-2" x1="207.13" y1="396.65" x2="214.86" y2="374.96" gradientTransform="translate(0 -80.73)" gradientUnits="userSpaceOnUse"><stop offset="0" stop-color="#6a3200"/><stop offset="0.47" stop-color="#502600"/><stop offset="1" stop-color="#2d1700"/></linearGradient><radialGradient id="radial-gradient-3" cx="190.68" cy="188.27" r="15.49" gradientTransform="matrix(-1.29, 0, 0, 1, 552.67, 0)" xlink:href="#radial-gradient-2"/><linearGradient id="linear-gradient-3" x1="207.13" y1="396.65" x2="214.86" y2="374.96" gradientTransform="matrix(-1, 0, 0, 1, 500.74, -80.73)" xlink:href="#linear-gradient-2"/></defs><g id="Layer_2" data-name="Layer 2"><circle class="cls-1" cx="253.12" cy="243.55" r="194.72"/><ellipse class="cls-2" cx="253.97" cy="243.55" rx="178.97" ry="177.42"/><path class="cls-3" d="M312.62,58a194,194,0,0,1,45.43,21.36c-69.12,3.53-139,4.3-208.16-.9A194,194,0,0,1,198,56.71c-3.56.15-7.22.31-11,.5C136.13,59.8,45.32,68.32,45.32,77.79c0,12,93.42,21.72,208.65,21.72s208.65-9.72,208.65-21.72C462.62,69.14,385.66,61.51,312.62,58Z"/></g><g id="Layer_1" data-name="Layer 1"><path class="cls-4" d="M173.32,201.86c-1-.25-1.52-8.63,2.89-15.84.89-1.45,7.23-11.4,19-11.34,11.5.06,17.72,9.64,18.37,10.69,4.69,7.51,3.64,16.3,2.71,16.49s-1.34-8.91-8.53-15.52c-1.51-1.39-6-5.49-12.29-5.5-7,0-11.92,5-14.07,7.28C175,194.71,174.26,202.1,173.32,201.86Z"/><path class="cls-5" d="M252.28,326.4c-12,.06-37.3-1.64-58-19.33-15.29-13.07-23.11-30.6-21.4-32,1.88-1.51,13.84,17.56,37.64,28.87a94.71,94.71,0,0,0,41,8.77"/><path class="cls-6" d="M327.42,201.86c1-.25,1.53-8.63-2.89-15.84-.89-1.45-7.23-11.4-19-11.34-11.49.06-17.71,9.64-18.37,10.69-4.69,7.51-3.64,16.3-2.7,16.49S285.8,193,293,186.34c1.51-1.39,6-5.49,12.29-5.5,7,0,11.92,5,14.07,7.28C325.71,194.71,326.48,202.1,327.42,201.86Z"/><path class="cls-7" d="M248.46,326.4c12,.06,37.3-1.64,58-19.33,15.29-13.07,23.12-30.6,21.4-32C326,273.59,314,292.66,290.23,304a94.69,94.69,0,0,1-41,8.77"/><path class="cls-6" d="M327.42,201.86c1-.25,1.53-8.63-2.89-15.84-.89-1.45-7.23-11.4-19-11.34-11.49.06-17.71,9.64-18.37,10.69-4.69,7.51-3.64,16.3-2.7,16.49S285.8,193,293,186.34c1.51-1.39,6-5.49,12.29-5.5,7,0,11.92,5,14.07,7.28C325.71,194.71,326.48,202.1,327.42,201.86Z"/><path class="cls-7" d="M248.46,326.4c12,.06,37.3-1.64,58-19.33,15.29-13.07,23.12-30.6,21.4-32C326,273.59,314,292.66,290.23,304a94.69,94.69,0,0,1-41,8.77"/><path class="cls-4" d="M173.32,201.86c-1-.25-1.52-8.63,2.89-15.84.89-1.45,7.23-11.4,19-11.34,11.5.06,17.72,9.64,18.37,10.69,4.69,7.51,3.64,16.3,2.71,16.49s-1.34-8.91-8.53-15.52c-1.51-1.39-6-5.49-12.29-5.5-7,0-11.92,5-14.07,7.28C175,194.71,174.26,202.1,173.32,201.86Z"/><path class="cls-5" d="M252.28,326.4c-12,.06-37.3-1.64-58-19.33-15.29-13.07-23.11-30.6-21.4-32,1.88-1.51,13.84,17.56,37.64,28.87a94.71,94.71,0,0,0,41,8.77"/></g></svg>