<svg xmlns="http://www.w3.org/2000/svg" xmlns:xlink="http://www.w3.org/1999/xlink" viewBox="0 0 500 500"><defs><style>.cls-1{fill:url(#radial-gradient);}.cls-2{fill:url(#linear-gradient);}.cls-3{fill:url(#radial-gradient-2);}.cls-4{fill:url(#radial-gradient-3);}.cls-5{fill:url(#radial-gradient-4);}.cls-6{fill:url(#radial-gradient-5);}.cls-7{fill:url(#linear-gradient-2);}.cls-8{fill:url(#radial-gradient-6);}.cls-9{fill:url(#radial-gradient-7);}.cls-10{fill:url(#radial-gradient-8);}.cls-11{fill:url(#linear-gradient-3);}.cls-12{fill:url(#radial-gradient-9);}.cls-13{fill:url(#radial-gradient-10);}.cls-14{fill:url(#radial-gradient-16);}</style><radialGradient id="radial-gradient" cx="253.12" cy="242.9" fy="122.50594476823316" r="194.81" gradientUnits="userSpaceOnUse"><stop offset="0.84" stop-color="#ffd928"/><stop offset="0.91" stop-color="#ecb019"/><stop offset="1" stop-color="#cd6c00"/></radialGradient><linearGradient id="linear-gradient" x1="253.97" y1="67.95" x2="253.97" y2="411.46" gradientUnits="userSpaceOnUse"><stop offset="0" stop-color="#fffde1"/><stop offset="0.01" stop-color="#fffcde"/><stop offset="0.25" stop-color="#ffed80"/><stop offset="0.42" stop-color="#ffe345"/><stop offset="0.5" stop-color="#ffdf2e"/><stop offset="0.7" stop-color="#efba1e"/><stop offset="0.89" stop-color="#e39d12"/><stop offset="1" stop-color="#de920d"/></linearGradient><radialGradient id="radial-gradient-2" cx="395.08" cy="123.1" r="34.32" gradientTransform="translate(0 -37.78) scale(1 1.31)" gradientUnits="userSpaceOnUse"><stop offset="0" stop-color="#d40005"/><stop offset="0.38" stop-color="#d10006"/><stop offset="0.64" stop-color="#c80007"/><stop offset="0.85" stop-color="#ba000b"/><stop offset="1" stop-color="#aa000e"/></radialGradient><radialGradient id="radial-gradient-3" cx="135.73" cy="400.72" r="34.32" gradientTransform="translate(0 -122.98) scale(1 1.31)" xlink:href="#radial-gradient-2"/><radialGradient id="radial-gradient-4" cx="434.4" cy="326.4" r="34.32" gradientTransform="translate(0 -100.17) scale(1 1.31)" xlink:href="#radial-gradient-2"/><radialGradient id="radial-gradient-5" cx="126.24" cy="285.9" r="29.4" gradientTransform="translate(-163.09 -435.27) scale(2.46 2.46)" gradientUnits="userSpaceOnUse"><stop offset="0" stop-color="#b91700" stop-opacity="0.4"/><stop offset="0.27" stop-color="#b91700" stop-opacity="0.3"/><stop offset="0.36" stop-color="#b91700" stop-opacity="0.24"/><stop offset="0.6" stop-color="#b91700" stop-opacity="0.11"/><stop offset="0.82" stop-color="#b91700" stop-opacity="0.03"/><stop offset="1" stop-color="#b91700" stop-opacity="0"/></radialGradient><linearGradient id="linear-gradient-2" x1="207.13" y1="396.65" x2="214.86" y2="374.96" gradientTransform="translate(0 -80.73)" gradientUnits="userSpaceOnUse"><stop offset="0" stop-color="#6a3200"/><stop offset="0.47" stop-color="#502600"/><stop offset="1" stop-color="#2d1700"/></linearGradient><radialGradient id="radial-gradient-6" cx="190.97" cy="190.58" r="13.43" gradientTransform="translate(-51.93) scale(1.29 1)" gradientUnits="userSpaceOnUse"><stop offset="0" stop-color="#6a3200"/><stop offset="0.34" stop-color="#673100"/><stop offset="0.56" stop-color="#5e2d00"/><stop offset="0.75" stop-color="#4f2600"/><stop offset="0.92" stop-color="#3a1d00"/><stop offset="1" stop-color="#2d1700"/></radialGradient><radialGradient id="radial-gradient-7" cx="249.31" cy="124.21" r="14.52" gradientTransform="matrix(0.49, -0.87, 0.87, 0.49, -43.88, 325.29)" xlink:href="#radial-gradient-6"/><radialGradient id="radial-gradient-8" cx="126.24" cy="285.9" r="29.4" gradientTransform="matrix(-2.46, 0, 0, 2.46, 663.84, -435.27)" xlink:href="#radial-gradient-5"/><linearGradient id="linear-gradient-3" x1="207.13" y1="396.65" x2="214.86" y2="374.96" gradientTransform="matrix(-1, 0, 0, 1, 500.74, -80.73)" xlink:href="#linear-gradient-2"/><radialGradient id="radial-gradient-9" cx="190.97" cy="190.58" r="13.43" gradientTransform="matrix(-1.29, 0, 0, 1, 552.67, 0)" xlink:href="#radial-gradient-6"/><radialGradient id="radial-gradient-10" cx="249.31" cy="124.21" r="14.52" gradientTransform="matrix(-0.49, -0.87, -0.87, 0.49, 544.62, 325.29)" xlink:href="#radial-gradient-6"/><radialGradient id="radial-gradient-16" cx="249.31" cy="124.21" r="14.52" gradientTransform="matrix(0.49, -0.87, 0.87, 0.49, -43.88, 325.29)" xlink:href="#radial-gradient-6"/></defs><g id="Layer_2" data-name="Layer 2"><circle class="cls-1" cx="253.12" cy="243.55" r="194.72"/><ellipse class="cls-2" cx="253.97" cy="243.55" rx="178.97" ry="177.42"/><path class="cls-3" d="M395.09,97.22c.22-.68,3.05-9,11.2-11.17,7.76-2.11,14,3,15.6,4.31a25.53,25.53,0,0,1,7.32,11.75c3.63,12.43-9.78,35.54-34.13,58.55v0c-24.36-23-37.77-46.12-34.14-58.55a25.53,25.53,0,0,1,7.32-11.75c1.59-1.3,7.84-6.42,15.6-4.31,8.15,2.21,11,10.49,11.2,11.17"/><path class="cls-4" d="M135.74,374.84c.22-.69,3-9,11.2-11.18,7.76-2.1,14,3,15.6,4.31a25.6,25.6,0,0,1,7.32,11.75c3.63,12.43-9.77,35.55-34.13,58.56v0c-24.36-23-37.77-46.13-34.14-58.56A25.6,25.6,0,0,1,108.91,368c1.59-1.3,7.84-6.41,15.6-4.31,8.15,2.21,11,10.49,11.2,11.18"/><path class="cls-5" d="M434.42,300.52c.22-.68,3.05-9,11.2-11.17,7.76-2.11,14,3,15.6,4.31a25.53,25.53,0,0,1,7.32,11.75c3.63,12.43-9.78,35.54-34.14,58.55v0c-24.36-23-37.76-46.12-34.13-58.55a25.53,25.53,0,0,1,7.32-11.75c1.59-1.31,7.84-6.42,15.6-4.31,8.15,2.21,11,10.49,11.2,11.17"/></g><g id="Layer_1" data-name="Layer 1"><circle class="cls-6" cx="147.27" cy="267.58" r="72.27"/><path class="cls-7" d="M252.28,326.4c-12,.06-37.3-1.64-58-19.33-15.29-13.07-23.11-30.6-21.4-32,1.88-1.51,13.84,17.56,37.64,28.87a94.71,94.71,0,0,0,41,8.77"/><path class="cls-8" d="M174.73,200c-1.25-.66-.59-6.49,2.57-11,5.66-8,16.79-8.2,18.16-8.2,2.21,0,12.26.32,17.61,7.74,3.44,4.76,3.91,11,2.57,11.69s-3.54-5-10.28-8a23.22,23.22,0,0,0-10.06-1.64,25.5,25.5,0,0,0-11.69,2.57C177.79,196.25,175.9,200.64,174.73,200Z"/><path class="cls-9" d="M167.83,176.48c-1.16-1.88,21.17-23.06,32.33-17.7,2.63,1.26,5.4,4.36,5.05,4.9s-2.44-1.29-5.37-1.84c-7.64-1.46-16.57,5.85-23.24,11.32a14.86,14.86,0,0,1-3.63,2.22C171.33,176.09,168.21,177.09,167.83,176.48Z"/><circle class="cls-10" cx="353.48" cy="267.58" r="72.27"/><path class="cls-11" d="M248.46,326.4c12,.06,37.3-1.64,58-19.33,15.29-13.07,23.12-30.6,21.4-32C326,273.59,314,292.66,290.23,304a94.69,94.69,0,0,1-41,8.77"/><path class="cls-12" d="M326,200c1.26-.66.59-6.49-2.57-11-5.66-8-16.79-8.2-18.16-8.2-2.2,0-12.26.32-17.61,7.74-3.43,4.76-3.91,11-2.57,11.69s3.54-5,10.29-8a23.18,23.18,0,0,1,10.05-1.64,25.45,25.45,0,0,1,11.69,2.57C323,196.25,324.85,200.64,326,200Z"/><path class="cls-13" d="M332.91,176.48c1.16-1.88-21.17-23.06-32.33-17.7-2.62,1.26-5.4,4.36-5.05,4.9s2.44-1.29,5.37-1.84c7.65-1.46,16.57,5.85,23.24,11.32a15.08,15.08,0,0,0,3.63,2.22C329.41,176.09,332.54,177.09,332.91,176.48Z"/><circle class="cls-10" cx="353.48" cy="267.58" r="72.27"/><path class="cls-11" d="M248.46,326.4c12,.06,37.3-1.64,58-19.33,15.29-13.07,23.12-30.6,21.4-32C326,273.59,314,292.66,290.23,304a94.69,94.69,0,0,1-41,8.77"/><path class="cls-12" d="M326,200c1.26-.66.59-6.49-2.57-11-5.66-8-16.79-8.2-18.16-8.2-2.2,0-12.26.32-17.61,7.74-3.43,4.76-3.91,11-2.57,11.69s3.54-5,10.29-8a23.18,23.18,0,0,1,10.05-1.64,25.45,25.45,0,0,1,11.69,2.57C323,196.25,324.85,200.64,326,200Z"/><path class="cls-13" d="M332.91,176.48c1.16-1.88-21.17-23.06-32.33-17.7-2.62,1.26-5.4,4.36-5.05,4.9s2.44-1.29,5.37-1.84c7.65-1.46,16.57,5.85,23.24,11.32a15.08,15.08,0,0,0,3.63,2.22C329.41,176.09,332.54,177.09,332.91,176.48Z"/><circle class="cls-6" cx="147.27" cy="267.58" r="72.27"/><path class="cls-7" d="M252.28,326.4c-12,.06-37.3-1.64-58-19.33-15.29-13.07-23.11-30.6-21.4-32,1.88-1.51,13.84,17.56,37.64,28.87a94.71,94.71,0,0,0,41,8.77"/><path class="cls-8" d="M174.73,200c-1.25-.66-.59-6.49,2.57-11,5.66-8,16.79-8.2,18.16-8.2,2.21,0,12.26.32,17.61,7.74,3.44,4.76,3.91,11,2.57,11.69s-3.54-5-10.28-8a23.22,23.22,0,0,0-10.06-1.64,25.5,25.5,0,0,0-11.69,2.57C177.79,196.25,175.9,200.64,174.73,200Z"/><path class="cls-14" d="M167.83,176.48c-1.16-1.88,21.17-23.06,32.33-17.7,2.63,1.26,5.4,4.36,5.05,4.9s-2.44-1.29-5.37-1.84c-7.64-1.46-16.57,5.85-23.24,11.32a14.86,14.86,0,0,1-3.63,2.22C171.33,176.09,168.21,177.09,167.83,176.48Z"/></g></svg>