<svg xmlns="http://www.w3.org/2000/svg" xmlns:xlink="http://www.w3.org/1999/xlink" viewBox="0 0 500 500"><defs><style>.cls-1{fill:url(#radial-gradient);}.cls-2{fill:url(#linear-gradient);}.cls-3{fill:url(#radial-gradient-2);}.cls-4{fill:url(#linear-gradient-2);}.cls-5{fill:url(#radial-gradient-3);}.cls-6{fill:url(#radial-gradient-4);}.cls-7{fill:url(#linear-gradient-3);}.cls-8{fill:url(#radial-gradient-5);}</style><radialGradient id="radial-gradient" cx="253.12" cy="242.9" fy="122.50594476823316" r="194.81" gradientUnits="userSpaceOnUse"><stop offset="0.84" stop-color="#ffd928"/><stop offset="0.91" stop-color="#ecb019"/><stop offset="1" stop-color="#cd6c00"/></radialGradient><linearGradient id="linear-gradient" x1="253.97" y1="67.95" x2="253.97" y2="411.46" gradientUnits="userSpaceOnUse"><stop offset="0" stop-color="#fffde1"/><stop offset="0.01" stop-color="#fffcde"/><stop offset="0.25" stop-color="#ffed80"/><stop offset="0.42" stop-color="#ffe345"/><stop offset="0.5" stop-color="#ffdf2e"/><stop offset="0.7" stop-color="#efba1e"/><stop offset="0.89" stop-color="#e39d12"/><stop offset="1" stop-color="#de920d"/></linearGradient><radialGradient id="radial-gradient-2" cx="194.86" cy="279.86" r="24.5" gradientUnits="userSpaceOnUse"><stop offset="0" stop-color="#6a3200"/><stop offset="0.34" stop-color="#673100"/><stop offset="0.56" stop-color="#5e2d00"/><stop offset="0.75" stop-color="#4f2600"/><stop offset="0.92" stop-color="#3a1d00"/><stop offset="1" stop-color="#2d1700"/></radialGradient><linearGradient id="linear-gradient-2" x1="206.38" y1="450.11" x2="214.12" y2="428.41" gradientTransform="matrix(1, 0, 0, -1, 0, 593.35)" gradientUnits="userSpaceOnUse"><stop offset="0" stop-color="#6a3200"/><stop offset="0.47" stop-color="#502600"/><stop offset="1" stop-color="#2d1700"/></linearGradient><radialGradient id="radial-gradient-3" cx="190.73" cy="81.27" r="15.49" gradientTransform="matrix(1.29, 0, 0, -1, -51.93, 376.55)" xlink:href="#radial-gradient-2"/><radialGradient id="radial-gradient-4" cx="194.86" cy="279.86" r="24.5" gradientTransform="matrix(-1, 0, 0, 1, 500.74, 0)" xlink:href="#radial-gradient-2"/><linearGradient id="linear-gradient-3" x1="206.38" y1="450.11" x2="214.12" y2="428.41" gradientTransform="translate(500.74 593.35) rotate(180)" xlink:href="#linear-gradient-2"/><radialGradient id="radial-gradient-5" cx="190.73" cy="81.27" r="15.49" gradientTransform="translate(552.67 376.55) rotate(180) scale(1.29 1)" xlink:href="#radial-gradient-2"/></defs><g id="Layer_2" data-name="Layer 2"><circle class="cls-1" cx="253.12" cy="243.55" r="194.72"/><ellipse class="cls-2" cx="253.97" cy="243.55" rx="178.97" ry="177.42"/></g><g id="Layer_1" data-name="Layer 1"><ellipse class="cls-3" cx="194.86" cy="279.86" rx="21.48" ry="27.18"/><path class="cls-4" d="M251.53,132.77c-12-.06-37.29,1.63-58,19.33-15.28,13.07-23.11,30.6-21.39,32,1.88,1.51,13.84-17.56,37.64-28.87a94.69,94.69,0,0,1,41-8.77"/><path class="cls-5" d="M173.38,281.69c-1,.24-1.52,8.63,2.9,15.84.88,1.44,7.23,11.4,19,11.34,11.49-.06,17.71-9.64,18.37-10.69,4.69-7.51,3.64-16.31,2.7-16.49s-1.33,8.9-8.53,15.51c-1.5,1.39-6,5.49-12.29,5.5-7,0-11.92-5.05-14.07-7.27C175.1,288.84,174.33,281.45,173.38,281.69Z"/><ellipse class="cls-6" cx="305.88" cy="279.86" rx="21.48" ry="27.18"/><path class="cls-7" d="M249.21,132.77c12-.06,37.29,1.63,58,19.33,15.29,13.07,23.11,30.6,21.4,32-1.88,1.51-13.84-17.56-37.64-28.87a94.71,94.71,0,0,0-41-8.77"/><path class="cls-8" d="M327.36,281.69c1,.24,1.52,8.63-2.89,15.84-.89,1.44-7.23,11.4-19,11.34-11.5-.06-17.71-9.64-18.37-10.69-4.69-7.51-3.64-16.31-2.71-16.49s1.34,8.9,8.53,15.51c1.51,1.39,6,5.49,12.29,5.5,7,0,11.92-5.05,14.07-7.27C325.65,288.84,326.42,281.45,327.36,281.69Z"/><ellipse class="cls-6" cx="305.88" cy="279.86" rx="21.48" ry="27.18"/><path class="cls-7" d="M249.21,132.77c12-.06,37.29,1.63,58,19.33,15.29,13.07,23.11,30.6,21.4,32-1.88,1.51-13.84-17.56-37.64-28.87a94.71,94.71,0,0,0-41-8.77"/><path class="cls-8" d="M327.36,281.69c1,.24,1.52,8.63-2.89,15.84-.89,1.44-7.23,11.4-19,11.34-11.5-.06-17.71-9.64-18.37-10.69-4.69-7.51-3.64-16.31-2.71-16.49s1.34,8.9,8.53,15.51c1.51,1.39,6,5.49,12.29,5.5,7,0,11.92-5.05,14.07-7.27C325.65,288.84,326.42,281.45,327.36,281.69Z"/><ellipse class="cls-3" cx="194.86" cy="279.86" rx="21.48" ry="27.18"/><path class="cls-4" d="M251.53,132.77c-12-.06-37.29,1.63-58,19.33-15.28,13.07-23.11,30.6-21.39,32,1.88,1.51,13.84-17.56,37.64-28.87a94.69,94.69,0,0,1,41-8.77"/><path class="cls-5" d="M173.38,281.69c-1,.24-1.52,8.63,2.9,15.84.88,1.44,7.23,11.4,19,11.34,11.49-.06,17.71-9.64,18.37-10.69,4.69-7.51,3.64-16.31,2.7-16.49s-1.33,8.9-8.53,15.51c-1.5,1.39-6,5.49-12.29,5.5-7,0-11.92-5.05-14.07-7.27C175.1,288.84,174.33,281.45,173.38,281.69Z"/></g></svg>