<svg xmlns="http://www.w3.org/2000/svg" xmlns:xlink="http://www.w3.org/1999/xlink" viewBox="0 0 500 500"><defs><style>.cls-1{fill:url(#radial-gradient);}.cls-2{fill:url(#linear-gradient);}.cls-3{fill:url(#radial-gradient-2);}.cls-4{fill:url(#radial-gradient-3);}.cls-5{fill:url(#radial-gradient-4);}.cls-6{fill:url(#radial-gradient-5);}.cls-7{fill:url(#radial-gradient-6);}.cls-8{fill:url(#linear-gradient-2);}.cls-9{fill:url(#linear-gradient-3);}</style><radialGradient id="radial-gradient" cx="253.12" cy="242.9" fy="122.50594476823316" r="194.81" gradientUnits="userSpaceOnUse"><stop offset="0.84" stop-color="#ffd928"/><stop offset="0.91" stop-color="#ecb019"/><stop offset="1" stop-color="#cd6c00"/></radialGradient><linearGradient id="linear-gradient" x1="253.97" y1="67.95" x2="253.97" y2="411.46" gradientUnits="userSpaceOnUse"><stop offset="0" stop-color="#fffde1"/><stop offset="0.01" stop-color="#fffcde"/><stop offset="0.25" stop-color="#ffed80"/><stop offset="0.42" stop-color="#ffe345"/><stop offset="0.5" stop-color="#ffdf2e"/><stop offset="0.7" stop-color="#efba1e"/><stop offset="0.89" stop-color="#e39d12"/><stop offset="1" stop-color="#de920d"/></linearGradient><radialGradient id="radial-gradient-2" cx="194.86" cy="201.86" r="24.5" gradientUnits="userSpaceOnUse"><stop offset="0" stop-color="#6a3200"/><stop offset="0.34" stop-color="#673100"/><stop offset="0.56" stop-color="#5e2d00"/><stop offset="0.75" stop-color="#4f2600"/><stop offset="0.92" stop-color="#3a1d00"/><stop offset="1" stop-color="#2d1700"/></radialGradient><radialGradient id="radial-gradient-3" cx="190.73" cy="188.27" r="15.49" gradientTransform="translate(-51.93) scale(1.29 1)" xlink:href="#radial-gradient-2"/><radialGradient id="radial-gradient-4" cx="271.31" cy="201.87" r="13.43" gradientTransform="translate(-51.93) scale(1.29 1)" xlink:href="#radial-gradient-2"/><radialGradient id="radial-gradient-5" cx="141.21" cy="166.2" r="14.52" gradientTransform="matrix(-1, 0, 0, 1, 313.91, 0)" xlink:href="#radial-gradient-2"/><radialGradient id="radial-gradient-6" cx="361.9" cy="180.27" r="14.52" gradientTransform="matrix(0.95, -0.3, 0.3, 0.95, -86.56, 118.76)" xlink:href="#radial-gradient-2"/><linearGradient id="linear-gradient-2" x1="207.19" y1="412.44" x2="214.92" y2="390.75" gradientTransform="translate(0 -80.73)" gradientUnits="userSpaceOnUse"><stop offset="0" stop-color="#6a3200"/><stop offset="0.47" stop-color="#502600"/><stop offset="1" stop-color="#2d1700"/></linearGradient><linearGradient id="linear-gradient-3" x1="207.19" y1="412.44" x2="214.92" y2="390.75" gradientTransform="matrix(-1, 0, 0, 1, 500.74, -80.73)" xlink:href="#linear-gradient-2"/></defs><g id="Layer_2" data-name="Layer 2"><circle class="cls-1" cx="253.12" cy="243.55" r="194.72"/><ellipse class="cls-2" cx="253.97" cy="243.55" rx="178.97" ry="177.42"/><ellipse class="cls-3" cx="194.86" cy="201.86" rx="21.48" ry="27.18"/><path class="cls-4" d="M173.38,201.86c-1-.24-1.52-8.63,2.9-15.84.88-1.44,7.23-11.4,19-11.34,11.49.06,17.71,9.64,18.37,10.69,4.69,7.51,3.64,16.3,2.7,16.49S215,193,207.81,186.34c-1.5-1.38-6-5.48-12.29-5.5-7,0-11.92,5-14.07,7.28C175.1,194.71,174.33,202.1,173.38,201.86Z"/><path class="cls-5" d="M278.7,211.32c-1.25-.66-.59-6.5,2.57-11,5.66-8.05,16.79-8.2,18.16-8.2,2.21,0,12.26.32,17.61,7.73,3.44,4.76,3.91,11,2.57,11.69s-3.54-5-10.29-8A23.28,23.28,0,0,0,299.27,202a25.34,25.34,0,0,0-11.69,2.57C281.76,207.54,279.87,211.93,278.7,211.32Z"/><path class="cls-6" d="M188.35,153.2c-1.07-1.94-30.49,7.1-31.31,19.46-.19,2.9,1.14,6.84,1.79,6.8s.07-2.75,1-5.58c2.49-7.38,13.25-11.55,21.29-14.67a15.39,15.39,0,0,0,3.72-2.07C186.29,156.06,188.7,153.83,188.35,153.2Z"/><path class="cls-7" d="M293.86,175c.44-2.17,31.22-2.33,35.69,9.22,1.05,2.71.95,6.87.32,7s-.89-2.6-2.65-5c-4.58-6.3-16.09-7.07-24.7-7.65a14.81,14.81,0,0,1-4.16-.86C296.68,177.08,293.71,175.67,293.86,175Z"/></g><g id="Layer_1" data-name="Layer 1"><path class="cls-8" d="M252.34,342.19c-12,.06-37.29-1.64-58-19.34-15.29-13.06-23.11-30.6-21.4-32,1.88-1.5,13.84,17.57,37.65,28.88a94.79,94.79,0,0,0,41,8.77"/><path class="cls-9" d="M248.4,342.19c12,.06,37.3-1.64,58-19.34,15.29-13.06,23.11-30.6,21.4-32-1.88-1.5-13.84,17.57-37.64,28.88a94.85,94.85,0,0,1-41,8.77"/><path class="cls-9" d="M248.4,342.19c12,.06,37.3-1.64,58-19.34,15.29-13.06,23.11-30.6,21.4-32-1.88-1.5-13.84,17.57-37.64,28.88a94.85,94.85,0,0,1-41,8.77"/><path class="cls-8" d="M252.34,342.19c-12,.06-37.29-1.64-58-19.34-15.29-13.06-23.11-30.6-21.4-32,1.88-1.5,13.84,17.57,37.65,28.88a94.79,94.79,0,0,0,41,8.77"/></g></svg>